<svg viewBox="114.39999999999998 69.49689440993791 540.8000000000001 529.0062111801243" xmlns="http://www.w3.org/2000/svg" xmlns:xlink="http://www.w3.org/1999/xlink" overflow="visible" width="540.8000000000001px" height="529.0062111801243px"><defs><polygon id="masterspot-illustrationui-design-path-1" points="0.000654721164 -2.97608239e-05 40.113 -2.97608239e-05 40.113 48.3245 0.000654721164 48.3245"/></defs><g id="Master/Spot Illustration/UI Design" stroke="none" stroke-width="1" fill="none" fill-rule="evenodd"><g id="User Interface" transform="translate(153.707073, 56.000000) scale(1 1)"><g id="User Interface/Texting" stroke="none" stroke-width="1" fill="none" fill-rule="evenodd"><path d="M181.6037,487.2233 L388.3887,487.2233 L388.3887,34.9623 L181.6037,34.9623 L181.6037,487.2233 Z M180.6037,488.2233 L389.3887,488.2233 L389.3887,33.9623 L180.6037,33.9623 L180.6037,488.2233 Z" id="Fill-2" fill="#000"/><path d="M374.366,482.549 L195.626,482.549 C190.212,482.549 185.823,478.16 185.823,472.746 L185.823,51.232 C185.823,45.817 190.212,41.428 195.626,41.428 L233.593,41.428 C240.551,41.428 246.191,47.068 246.191,54.026 C246.191,60.983 251.831,66.623 258.788,66.623 L311.204,66.623 C318.161,66.623 323.802,60.983 323.802,54.026 C323.802,47.068 329.442,41.428 336.399,41.428 L374.366,41.428 C379.781,41.428 384.17,45.817 384.17,51.232 L384.17,472.746 C384.17,478.16 379.781,482.549 374.366,482.549 M373.569,23.643 C388.162,23.643 399.992,35.473 399.992,50.066 L399.992,50.066 L399.992,473.911 C399.992,488.504 388.162,500.333 373.569,500.333 L373.569,500.333 L196.423,500.333 C181.83,500.333 170,488.504 170,473.911 L170,473.911 L170,50.066 C170,35.473 181.83,23.643 196.423,23.643 L196.423,23.643 Z" id="Phone" fill="#000"/><g id="Writing" transform="translate(315.834600, 179.923800)"><path d="M8.572,-3.12638804e-13 L157.741,-3.12638804e-13 C162.475,-3.12638804e-13 166.313,3.838 166.313,8.572 L166.313,61.343 C166.313,66.077 162.475,69.915 157.741,69.915 L153.167,69.915 L153.406,70.042 L142.934,80.513 C140.866,82.581 137.513,82.581 135.445,80.513 L124.973,70.042 L125.212,69.915 L8.572,69.915 C3.838,69.915 -8.52651283e-13,66.077 -8.52651283e-13,61.343 L-8.52651283e-13,8.572 C-8.52651283e-13,3.838 3.838,-3.12638804e-13 8.572,-3.12638804e-13" id="Fill-6" fill="#E1E1E1"/><path d="M65.8479,38.084 C65.8479,39.932 64.3489,41.43 62.5009,41.43 C60.6529,41.43 59.1549,39.932 59.1549,38.084 C59.1549,36.236 60.6529,34.737 62.5009,34.737 C64.3489,34.737 65.8479,36.236 65.8479,38.084" id="Fill-22" fill="#FFF"/><path d="M86.5031,38.084 C86.5031,39.932 85.0041,41.43 83.1561,41.43 C81.3081,41.43 79.8101,39.932 79.8101,38.084 C79.8101,36.236 81.3081,34.737 83.1561,34.737 C85.0041,34.737 86.5031,36.236 86.5031,38.084" id="Fill-24" fill="#FFF"/><path d="M107.1584,38.084 C107.1584,39.932 105.6594,41.43 103.8114,41.43 C101.9634,41.43 100.4654,39.932 100.4654,38.084 C100.4654,36.236 101.9634,34.737 103.8114,34.737 C105.6594,34.737 107.1584,36.236 107.1584,38.084" id="Fill-26" fill="#FFF"/></g><g id="Text-Message-3" transform="translate(71.000000, 121.000000)"><path d="M256.077,-5.68434189e-14 L13.916,-5.68434189e-14 C6.23,-5.68434189e-14 -7.10542736e-13,6.23 -7.10542736e-13,13.916 L-7.10542736e-13,99.584 C-7.10542736e-13,107.27 6.23,113.5 13.916,113.5 L21.341,113.5 L20.954,113.706 L37.953,130.705 C41.31,134.062 46.754,134.062 50.112,130.705 L67.111,113.706 L66.723,113.5 L256.077,113.5 C263.763,113.5 269.993,107.27 269.993,99.584 L269.993,13.916 C269.993,6.23 263.763,-5.68434189e-14 256.077,-5.68434189e-14" id="Fill-20" fill="#EC7068"/><line x1="21.994" y1="27.03" x2="247.999" y2="27.03" id="Stroke-28" stroke="#FFF" stroke-width="3" stroke-linecap="round"/><line x1="21.994" y1="46.834" x2="247.999" y2="46.834" id="Stroke-30" stroke="#FFF" stroke-width="3" stroke-linecap="round"/><line x1="21.994" y1="66.637" x2="247.999" y2="66.637" id="Stroke-32" stroke="#FFF" stroke-width="3" stroke-linecap="round"/><line x1="21.994" y1="86.441" x2="247.999" y2="86.441" id="Stroke-34" stroke="#FFF" stroke-width="3" stroke-linecap="round"/></g><g id="Text-Message-2" transform="translate(99.393100, 271.321700)"><path d="M144.054,-2.7000624e-13 L7.828,-2.7000624e-13 C3.505,-2.7000624e-13 8.10018719e-13,3.505 8.10018719e-13,7.829 L8.10018719e-13,56.021 C8.10018719e-13,60.344 3.505,63.849 7.828,63.849 L12.005,63.849 L11.787,63.964 L21.35,73.527 C23.239,75.416 26.301,75.416 28.19,73.527 L37.752,63.964 L37.534,63.849 L144.054,63.849 C148.378,63.849 151.883,60.344 151.883,56.021 L151.883,7.829 C151.883,3.505 148.378,-2.7000624e-13 144.054,-2.7000624e-13" id="Fill-36" fill="#F5F5F5"/><line x1="12.372" y1="15.206" x2="139.51" y2="15.206" id="Stroke-38" stroke="#E0E0E0" stroke-width="2" stroke-linecap="round" stroke-linejoin="round"/><line x1="12.372" y1="26.346" x2="139.51" y2="26.346" id="Stroke-40" stroke="#E0E0E0" stroke-width="2" stroke-linecap="round" stroke-linejoin="round"/><line x1="12.372" y1="37.486" x2="139.51" y2="37.486" id="Stroke-42" stroke="#E0E0E0" stroke-width="2" stroke-linecap="round" stroke-linejoin="round"/><line x1="12.372" y1="48.627" x2="139.51" y2="48.627" id="Stroke-44" stroke="#E0E0E0" stroke-width="2" stroke-linecap="round" stroke-linejoin="round"/></g><g id="Text-Message-1" transform="translate(228.120000, 266.851500)"><path d="M13.916,-5.68434189e-14 L256.077,-5.68434189e-14 C263.763,-5.68434189e-14 269.993,6.23 269.993,13.916 L269.993,99.584 C269.993,107.27 263.763,113.5 256.077,113.5 L248.652,113.5 L249.039,113.706 L232.04,130.705 C228.683,134.062 223.239,134.062 219.881,130.705 L202.882,113.706 L203.27,113.5 L13.916,113.5 C6.23,113.5 1.10844667e-12,107.27 1.10844667e-12,99.584 L1.10844667e-12,13.916 C1.10844667e-12,6.23 6.23,-5.68434189e-14 13.916,-5.68434189e-14" id="Fill-46" fill="#94B1EB"/><line x1="247.999" y1="27.03" x2="21.994" y2="27.03" id="Stroke-48" stroke="#FFF" stroke-width="3" stroke-linecap="round"/><line x1="247.999" y1="46.834" x2="21.994" y2="46.834" id="Stroke-50" stroke="#FFF" stroke-width="3" stroke-linecap="round"/><line x1="247.999" y1="66.637" x2="21.994" y2="66.637" id="Stroke-52" stroke="#FFF" stroke-width="3" stroke-linecap="round"/><line x1="247.999" y1="86.441" x2="21.994" y2="86.441" id="Stroke-54" stroke="#FFF" stroke-width="3" stroke-linecap="round"/></g></g></g><g transform="translate(548.707073, 198.494000) scale(-1, 1) translate(-548.707073, -198.494000) translate(283.207073, -177.006000) scale(1 1)" id="Master/Character/Standing"><defs><polygon id="mastercharacterstanding-path-1" points="0 -0.000126433058 71.516 -0.000126433058 71.516 59.6565 0 59.6565"/></defs><g id="Master/Character/Standing" stroke="none" stroke-width="1" fill="none" fill-rule="evenodd"><g id="Lower Body/Standing" transform="translate(47.000000, 444.000000) scale(1 1)"><g id="Lower Body/Standing/Long Skirt" stroke="none" stroke-width="1" fill="none" fill-rule="evenodd"><g id="Group" transform="translate(140.000041, 43.000800)"><path d="M27.614959,0.4996 L114.841959,0.4996 C114.841959,0.4996 120.209959,89.5296 125.577959,110.3296 C130.944959,131.1306 160.468959,186.1496 160.468959,186.1496 C160.468959,186.1496 32.981959,204.2676 0.103958991,186.1496 C0.103958991,186.1496 41.033959,110.3296 42.375959,73.4266 C42.375959,73.4266 26.943959,33.0246 27.614959,0.4996" id="Skirt" fill="#F9E272"/><path d="M166.830759,260.6305 C160.833759,256.9555 133.184759,246.6765 132.555759,238.3055 C131.579759,225.3135 131.612759,204.5415 131.785759,189.6015 C123.730759,190.4505 114.457759,191.3355 104.595759,192.0995 L115.757759,238.5055 C116.297759,242.6925 117.024759,243.0935 112.472759,252.5915 C108.158759,261.5885 118.710759,263.0125 118.710759,263.0125 L166.113759,263.131505 C166.860759,263.1335 167.468759,262.5275 167.468759,261.7805 C167.468759,261.3105 167.231759,260.8755 166.830759,260.6305 M55.399759,260.6305 C49.403759,256.9555 21.522759,247.9365 24.290759,240.0115 C27.144759,231.8355 39.066759,209.7825 47.360759,194.0965 C37.158759,193.8565 27.610759,193.1705 19.429759,191.8645 L8.42575899,236.0155 C7.13275899,240.3575 4.72875899,242.5945 0.792758991,252.6095 C-2.85724101,261.8965 7.28075899,263.0125 7.28075899,263.0125 L54.683759,263.131505 C55.431759,263.1335 56.037759,262.5275 56.037759,261.7805 C56.037759,261.3105 55.800759,260.8755 55.399759,260.6305" id="Skin" fill="#b35107"/><path d="M166.830759,260.6305 C165.091759,259.5655 148.762759,250.8805 144.040759,249.2315 C140.470759,256.9365 117.199759,253.3065 115.006759,246.9095 C114.977759,246.9805 112.251759,252.5385 112.223759,252.6095 C108.573759,261.8965 118.710759,263.0125 118.710759,263.0125 L166.114759,263.131505 C166.860759,263.1335 167.468759,262.5275 167.468759,261.7805 C167.468759,261.3105 167.231759,260.8755 166.830759,260.6305 M55.399759,260.6305 C53.660759,259.5655 37.544759,251.5725 32.822759,249.9235 C29.253759,257.6285 8.39875899,253.4795 3.35775899,246.6285 C3.32975899,246.6985 0.820758991,252.5385 0.792758991,252.6095 C-2.85724101,261.8965 7.28075899,263.0125 7.28075899,263.0125 L54.683759,263.131505 C55.431759,263.1335 56.037759,262.5275 56.037759,261.7805 C56.037759,261.3105 55.800759,260.8755 55.399759,260.6305" id="Shoes" fill="#83BB9E"/><path d="M144.250659,248.777 C144.001659,248.661 143.702659,248.77 143.586659,249.021 C142.267659,251.87 137.644659,253.367 131.221659,253.041 C123.595659,252.646 116.533659,249.823 115.479659,246.748 C115.412659,246.554 115.234659,246.423 115.030659,246.413 C114.816659,246.417 114.636659,246.519 114.550659,246.706 C114.505659,246.802 113.860659,248.119 113.204659,249.46 C111.845659,252.239 111.774659,252.384 111.758659,252.425 C111.658659,252.677 111.778659,252.961 112.027659,253.067 C112.276659,253.174 112.565659,253.06 112.680659,252.813 C112.727659,252.711 113.421659,251.293 114.103659,249.9 C114.523659,249.039 114.814659,248.445 115.015659,248.035 C117.244659,251.405 124.643659,253.702 131.169659,254.04 C131.761659,254.07 132.339659,254.086 132.902659,254.086 C138.850659,254.086 143.125659,252.395 144.494659,249.441 C144.609659,249.191 144.501659,248.893 144.250659,248.777 L144.250659,248.777 Z M55.660659,260.204 C54.066659,259.228 37.804659,251.133 32.987659,249.452 C32.742659,249.364 32.477659,249.479 32.368659,249.714 C31.147659,252.348 27.824659,253.21 25.251659,253.468 C17.622659,254.233 6.97565899,250.701 3.76065899,246.333 C3.59765899,246.108 3.28265899,246.062 3.06265899,246.226 C2.83965899,246.389 2.79165899,246.703 2.95565899,246.924 C6.40365899,251.611 17.290659,255.272 25.352659,254.464 C29.179659,254.079 31.833659,252.726 33.065659,250.544 C38.288659,252.49 53.601659,260.115 55.139659,261.057 C55.220659,261.107 55.310659,261.131 55.399659,261.131 C55.567659,261.131 55.731659,261.046 55.826659,260.891 C55.970659,260.656 55.896659,260.348 55.660659,260.204 L55.660659,260.204 Z M28.105659,1 L114.841659,1 C115.117659,1 115.341659,0.776 115.341659,0.5 C115.341659,0.223 115.117659,0 114.841659,0 L27.614659,0 C27.342659,0 27.120659,0.217 27.114659,0.489 C26.449659,32.739 41.753659,73.2 41.908659,73.605 C41.910659,73.61 41.915659,73.611 41.916659,73.616 C41.919659,73.623 41.919659,73.631 41.922659,73.638 C42.163659,74.154 66.049659,125.76 67.373659,173.416 C67.381659,173.687 67.604659,173.902 67.873659,173.902 L67.887659,173.902 C68.163659,173.894 68.381659,173.664 68.373659,173.388 C67.048659,125.682 43.229659,74.074 42.834659,73.227 C42.483659,72.304 27.610659,32.756 28.105659,1 L28.105659,1 Z M160.908659,185.914 C160.613659,185.364 131.353659,130.71 126.062659,110.205 C126.060659,110.196 126.053659,110.189 126.050659,110.18 C126.047659,110.171 126.048659,110.161 126.045659,110.152 C125.697659,109.239 125.325659,108.253 124.937659,107.213 L119.810659,62.283 C119.778659,62.007 119.524659,61.814 119.256659,61.842 C118.981659,61.874 118.784659,62.122 118.815659,62.396 L123.483659,103.307 C113.755659,76.995 95.387659,24.532 95.184659,23.954 C95.093659,23.693 94.809659,23.554 94.547659,23.647 C94.286659,23.738 94.148659,24.023 94.240659,24.284 C94.462659,24.919 116.532659,87.956 125.101659,110.485 C130.443659,131.129 159.731659,185.836 160.027659,186.386 C160.117659,186.554 160.290659,186.65 160.468659,186.65 C160.548659,186.65 160.629659,186.631 160.704659,186.59 C160.947659,186.46 161.039659,186.157 160.908659,185.914 L160.908659,185.914 Z M123.287659,241.792 C123.350659,241.522 123.183659,241.254 122.914659,241.19 C122.638659,241.13 122.376659,241.295 122.313659,241.563 L121.932659,243.192 C121.462659,245.208 122.054659,247.283 123.517659,248.745 C123.614659,248.842 123.742659,248.891 123.870659,248.891 C123.998659,248.891 124.126659,248.842 124.224659,248.745 C124.419659,248.549 124.419659,248.233 124.224659,248.038 C123.007659,246.822 122.515659,245.095 122.906659,243.42 L123.287659,241.792 Z M12.439659,248.891 C12.567659,248.891 12.695659,248.842 12.793659,248.745 C12.988659,248.549 12.988659,248.233 12.793659,248.038 C11.576659,246.821 11.084659,245.094 11.477659,243.419 L11.856659,241.791 C11.919659,241.522 11.752659,241.254 11.482659,241.19 C11.214659,241.13 10.945659,241.295 10.882659,241.564 L10.502659,243.191 C10.031659,245.206 10.623659,247.282 12.086659,248.745 C12.184659,248.842 12.312659,248.891 12.439659,248.891 L12.439659,248.891 Z" id="Fill-9" fill="#000"/></g></g></g><g id="Upper Body" transform="translate(8.000000, 189.000000) scale(1 1)"><g id="Upper Body/Video Call" stroke="none" stroke-width="1" fill="none" fill-rule="evenodd"><path d="M252.135,198.2885 C247.49,202.1595 236.136,181.5155 236.136,181.5155 C236.136,181.5155 205.944,178.1605 182.203,215.3195 C182.203,215.3195 196.912,228.2215 211.105,230.5455 C211.105,230.5455 204.654,298.7715 206.202,303.4155 C208.082649,304.967817 209.716983,305.771244 211.105,305.825781 C243.019722,307.079764 276.004357,304.185399 293.471094,305.825781 C298.548248,306.3026 301.169862,303.495048 301.335937,297.403125 L296.777,228.4805 C296.777,228.4805 311.164,226.9315 326.13,219.9655 C326.13,219.9655 312.776,180.9995 264.521,182.0315 C264.521,182.0315 256.779,194.4185 252.135,198.2885 Z" id="T-Shirt" fill="#83BB9E"/><path d="M206.2022,303.4158 C205.9932,303.4158 205.7982,303.6248 205.7282,303.4158 C204.1632,298.7238 210.3442,233.0808 210.6072,230.4948 C210.6162,230.4238 211.3832,223.9238 214.8392,216.1488 C214.9522,215.8968 215.2482,215.7828 215.4992,215.8948 C215.7512,216.0068 215.8652,216.3028 215.7532,216.5548 C212.3632,224.1818 211.6092,230.5388 211.6012,230.6018 C209.3752,252.4258 205.4782,299.8228 206.6762,303.4158 C206.7642,303.6778 206.6222,303.3288 206.3602,303.4158 C206.3072,303.4338 206.2542,303.4158 206.2022,303.4158" id="Fill-6" fill="#000"/><path d="M231.0851,215.1237 C232.5351,212.7477 242.6831,203.6067 243.4071,205.6607 C244.1311,207.7137 234.8301,217.0157 234.8301,217.0157 C234.8301,217.0157 249.5681,204.5737 251.7431,206.5057 C253.9171,208.4387 237.4881,221.0027 237.4881,221.0027 L237.514161,220.984785 C238.281774,220.457614 255.760155,208.48914 257.1421,210.7337 C258.5551,213.0297 239.7831,224.8687 239.7831,224.8687 C239.7831,224.8687 255.6081,215.9287 257.0591,217.8617 C258.5081,219.7947 242.2821,229.6887 242.2821,229.6887 C243.7321,231.1377 253.2731,229.2167 253.2731,229.2167 C256.3331,230.5057 247.6921,235.2797 240.6051,236.4067 C235.2891,237.2527 225.9861,252.0997 224.6931,253.6677 C217.5971,262.2707 195.8841,287.0317 180.4601,287.7877 C161.7831,288.7027 171.2471,239.7177 184.5531,217.2397 L184.5531,217.2397 L187.3741,219.3577 C192.0151,222.8847 199.0501,227.5567 208.1601,229.9157 L208.1601,229.9157 L208.1611,229.9167 L200.6021,246.5797 L211.8771,237.5527 C211.8771,237.5527 223.3531,229.3377 224.8031,225.1097 C226.2531,220.8817 231.0851,215.1237 231.0851,215.1237 Z M323.5415,221.1189 C323.5415,221.1189 342.2835,254.7049 327.3035,285.8729 C327.3035,285.8729 303.6255,294.8129 258.2035,258.3299 C258.2035,258.3299 242.4985,261.2289 234.5255,249.6319 L269.0755,252.0479 C269.0755,252.0479 307.0085,262.2489 309.6665,261.7389 C309.6665,261.7389 302.0095,252.7519 296.7775,228.4809 C296.7775,228.4809 314.4635,225.4659 323.5415,221.1189 Z M257.346434,172.9998 L257.346434,182.0318 L264.521,182.0318 C264.521,182.0318 256.779,194.4178 252.134,198.2888 C247.49,202.1598 236.135,181.5158 236.135,181.5158 L236.135,181.5158 L243.669434,181.5158 L243.669434,172.9998 L257.346434,172.9998 Z" id="Skin" fill="#b35107"/><path d="M298.553265,259.578621 L296.278,228.4608 C296.288,228.2138 296.477,228.0098 296.724,227.9838 C296.866,227.9688 310.934,226.3918 325.499,219.7068 C323.858,215.515806 309.198,181.7178 264.801,182.5258 C263.687,184.2898 256.813,195.0408 252.455,198.6728 C251.829,199.1938 251.078,199.3768 250.224,199.2158 C244.792,198.1898 236.066,182.4278 235.698,181.7568 C235.564,181.5148 235.653,181.2108 235.895,181.0778 C236.136,180.9448 236.441,181.0328 236.574,181.2748 C236.662,181.4348 245.438,197.2948 250.409,198.2328 C250.961,198.3358 251.423,198.2298 251.814,197.9038 C256.344,194.1298 264.02,181.8898 264.097,181.7668 C264.187,181.6238 264.342,181.5358 264.51,181.5318 C289.606,180.9998 305.161,191.4208 313.779,200.2618 C323.12,209.8448 326.57,219.7048 326.604,219.8028 C326.686,220.0448 326.573,220.3108 326.341,220.4178 C312.905,226.6728 299.774,228.6008 297.26,228.9248 L299.514509,259.639688 C299.514509,259.919922 299.320265,259.717227 299.053265,259.717227" id="Fill-8" fill="#000"/><path d="M200.6026,247.0794 C200.4946,247.0794 200.3866,247.0444 200.2956,246.9744 C200.1136,246.8324 200.0516,246.5834 200.1466,246.3724 L207.7056,229.7094 C207.8196,229.4584 208.1146,229.3464 208.3676,229.4604 C208.6186,229.5754 208.7296,229.8714 208.6166,230.1224 L201.9206,244.8834 L211.5646,237.1624 C211.6996,237.0654 222.9486,228.9764 224.3306,224.9474 C225.7936,220.6814 230.5016,215.0394 230.7026,214.8024 C231.9466,212.7514 240.6816,204.5964 243.0656,204.8694 C243.4566,204.9104 243.7526,205.1384 243.8786,205.4944 C244.3076,206.7124 242.2426,209.5774 239.9456,212.2584 C244.6676,208.6514 250.5156,204.7444 252.0756,206.1324 C252.2516,206.2884 252.4576,206.5724 252.4406,207.0364 C252.3786,208.6974 248.7506,212.2624 245.1046,215.4374 C249.7856,212.5504 255.1036,209.6234 256.8426,209.9914 C257.2506,210.0774 257.4626,210.3004 257.5676,210.4714 C258.1256,211.3774 257.5776,213.1064 249.2846,219.0684 C248.8546,219.3764 248.4236,219.6834 247.9946,219.9844 C255.3446,216.4984 257.0636,217.0364 257.4586,217.5614 C257.5776,217.7204 257.7026,217.9914 257.6276,218.3844 C257.1456,220.8874 246.9126,227.4144 243.3396,229.6254 C245.2106,229.9914 249.9016,229.3854 253.1746,228.7264 C253.4426,228.6704 253.7086,228.8474 253.7636,229.1184 C253.8176,229.3894 253.6426,229.6524 253.3716,229.7074 C251.7346,230.0374 243.4896,231.6024 241.9286,230.0424 C241.8206,229.9334 241.7676,229.7814 241.7856,229.6294 C241.8036,229.4774 241.8916,229.3414 242.0216,229.2624 C250.2816,224.2244 256.8436,219.2364 256.6496,218.1424 C255.9146,217.3604 248.3026,220.6304 240.0296,225.3044 C239.7936,225.4354 239.4936,225.3584 239.3536,225.1244 C239.2146,224.8914 239.2876,224.5904 239.5166,224.4454 C249.2606,218.2994 257.1376,212.1404 256.7156,210.9944 C255.8076,210.1984 247.1326,214.9674 237.7716,221.4134 C237.5476,221.5684 237.2426,221.5154 237.0826,221.2964 C236.9236,221.0764 236.9686,220.7694 237.1846,220.6054 C242.6566,216.4204 251.3666,209.0264 251.4406,206.9994 C251.4446,206.9094 251.4226,206.8904 251.4116,206.8794 C250.5126,206.0904 244.0496,209.8874 235.1526,217.3974 C234.9476,217.5704 234.6436,217.5514 234.4616,217.3544 C234.2806,217.1574 234.2876,216.8514 234.4766,216.6624 C238.8426,212.2954 243.3176,206.9114 242.9356,205.8274 C241.9296,205.5044 233.3956,212.2964 231.5116,215.3834 C231.4206,215.5014 226.6786,221.1824 225.2766,225.2714 C223.7916,229.6014 212.6426,237.6204 212.1676,237.9594 L200.9146,246.9694 C200.8236,247.0424 200.7136,247.0794 200.6026,247.0794" id="Fill-13" fill="#000"/><path d="M180.4595,288.2874 C180.1945,288.2874 179.9735,288.0794 179.9605,287.8114 C179.9475,287.5364 180.1595,287.3014 180.4355,287.2874 C195.7885,286.5354 217.8975,261.1204 224.3075,253.3494 C224.4835,253.1364 224.7985,253.1064 225.0115,253.2814 C225.2245,253.4574 225.2545,253.7724 225.0795,253.9854 C200.1625,284.1934 185.5925,288.0364 180.4845,288.2874 C180.4765,288.2874 180.4675,288.2874 180.4595,288.2874" id="Fill-15" fill="#000"/><path d="M185.5352,262.2391 C185.4392,262.2391 185.3422,262.2121 185.2562,262.1541 C185.0272,262.0001 184.9672,261.6891 185.1202,261.4601 C191.0232,252.6861 200.2242,246.2331 200.3172,246.1691 C200.5452,246.0111 200.8552,246.0671 201.0132,246.2941 C201.1712,246.5211 201.1152,246.8321 200.8882,246.9901 C200.7972,247.0531 191.7452,253.4041 185.9512,262.0181 C185.8542,262.1611 185.6962,262.2391 185.5352,262.2391" id="Fill-17" fill="#000"/><path d="M253.9458,259.1326 C248.5958,259.1326 239.5568,257.8326 234.1128,249.9146 C233.9568,249.6876 234.0148,249.3766 234.2418,249.2196 C234.4698,249.0626 234.7808,249.1206 234.9378,249.3486 C242.6308,260.5376 257.9578,257.8656 258.1128,257.8386 C258.3798,257.7846 258.6448,257.9666 258.6948,258.2396 C258.7448,258.5106 258.5658,258.7716 258.2938,258.8216 C258.2418,258.8316 256.5208,259.1326 253.9458,259.1326" id="Fill-21" fill="#000"/><path d="M309.666,262.2391 C309.525,262.2391 309.384,262.1791 309.286,262.0631 C308.969,261.6931 301.487,252.7031 296.289,228.5861 C296.26,228.4531 296.287,228.3141 296.363,228.2001 C296.439,228.0881 296.559,228.0111 296.693,227.9881 C296.87,227.9581 314.415,224.9341 323.326,220.6681 C323.574,220.5481 323.874,220.6541 323.993,220.9031 C324.112,221.1521 324.006,221.4501 323.757,221.5701 C315.591,225.4801 300.365,228.3441 297.376,228.8831 C302.51,252.3341 309.972,261.3261 310.047,261.4151 C310.226,261.6251 310.2,261.9411 309.99,262.1201 C309.895,262.2001 309.781,262.2391 309.666,262.2391" id="Fill-23" fill="#000"/><path d="M316.9683,269.1473 C316.8203,269.1473 316.6733,269.0813 316.5743,268.9553 C312.5393,263.8023 309.4693,262.2003 309.4383,262.1843 C309.1933,262.0593 309.0953,261.7573 309.2203,261.5113 C309.3453,261.2663 309.6443,261.1683 309.8933,261.2933 C310.0263,261.3613 313.1913,263.0143 317.3613,268.3393 C317.5313,268.5563 317.4933,268.8713 317.2763,269.0413 C317.1843,269.1123 317.0763,269.1473 316.9683,269.1473" id="Fill-25" fill="#000"/><polygon id="Computer" fill="#F1EFEF" points="277.189 210.906 263.276 248.119 263.217 248.104 224.693 248.104 224.693 249.104 260.561 255.382 315.259 255.382 335.345 210.906"/><path d="M260.7276,253.9798 C260.6996,253.9798 260.6716,253.9778 260.6446,253.9728 L224.8186,248.3368 C224.5466,248.2918 224.3626,248.0328 224.4086,247.7608 C224.4546,247.4888 224.7096,247.3058 224.9846,247.3508 L260.3976,252.9178 L276.5166,210.3808 C276.5876,210.1828 276.7756,210.0498 276.9866,210.0498 L335.3006,210.0498 C335.4706,210.0498 335.6286,210.1358 335.7206,210.2788 C335.8126,210.4218 335.8256,210.6018 335.7556,210.7558 L320.4396,244.6688 C320.3266,244.9208 320.0276,245.0328 319.7786,244.9188 C319.5266,244.8058 319.4146,244.5098 319.5286,244.2578 L334.5256,211.0498 L277.3386,211.0498 L261.1976,253.6488 C261.1256,253.8498 260.9356,253.9798 260.7276,253.9798" id="Fill-29" fill="#000"/></g></g><g id="Hair" transform="translate(107.000000, 209.000000) scale(1 1)"><g id="Hair/Medium Curly" stroke="none" stroke-width="1" fill="none" fill-rule="evenodd"><path d="M174.4789,144.0287 C175.2319,142.5597 175.8219,140.9947 176.2279,139.3557 C176.2409,139.3017 176.2519,139.2477 176.2649,139.1937 C176.2949,139.0667 176.3189,138.9377 176.3469,138.8107 C176.8079,136.3107 176.8479,133.4467 176.1869,130.1947 C176.0399,129.6837 175.8779,129.1807 175.7079,128.6907 C174.7999,128.4137 173.7609,128.2867 172.6169,128.3727 C169.1129,128.6347 171.2879,123.0357 168.6299,122.1907 C166.5939,121.5427 167.1099,119.9287 167.4629,119.2077 C167.3629,119.0197 167.2659,118.8317 167.1699,118.6437 C165.7149,117.7987 165.4549,115.0387 165.4549,115.0387 C165.4649,115.2067 165.4669,115.3707 165.4649,115.5337 C165.4919,119.6547 161.0999,118.8477 161.0999,118.8477 C161.0999,118.8477 161.3929,119.4107 161.5729,120.2527 C161.7119,120.4937 161.7739,121.8687 161.6939,121.8877 C161.5459,123.9267 160.1489,126.4107 154.6569,127.3847 C144.6699,129.1567 142.0929,131.0897 143.7039,137.0497 C144.7769,141.0197 142.0649,142.6967 140.1329,143.3777 L140.1329,143.3787 C140.1329,143.3787 141.5809,146.3457 139.4679,149.1297 C143.4199,153.2677 148.9839,155.8517 155.1579,155.8517 C163.5839,155.8517 170.8829,151.0457 174.4789,144.0287" id="Skin" fill="#b35107"/><path d="M205.7968,128.8437 C208.8788,126.9807 212.9658,123.5547 206.2178,121.3057 C196.5538,118.0847 199.7758,115.1847 201.3858,106.9697 C202.9968,98.7557 192.8518,99.2397 192.8518,99.2397 C192.8518,99.2397 194.7818,90.5407 181.4128,91.0237 C168.0438,91.5077 178.6748,80.3927 168.6878,77.9767 C158.7018,75.5607 156.5048,83.0697 156.5048,83.0697 C156.5048,83.0697 147.4258,78.9437 145.6548,83.9367 C144.9898,85.8097 143.8018,86.8887 142.5768,87.5077 L142.5938,87.6417 C131.9638,80.3927 127.9368,87.8027 127.6138,92.7957 C127.2928,97.7887 125.1978,99.5607 118.2718,98.1117 C111.3458,96.6617 102.6478,103.2657 108.1248,108.9037 C110.8398,111.6987 111.6478,114.0167 111.7748,115.6457 L111.3278,115.4657 C105.6908,114.6597 101.0198,118.0427 102.6298,122.5527 C104.2408,127.0627 105.8518,126.9017 101.3418,132.2177 C96.8318,137.5327 102.9528,141.3987 102.9528,141.3987 L103.9218,142.2317 C101.8318,143.2327 100.0018,145.2777 99.5698,149.2907 C98.4428,159.7607 111.3278,155.4117 111.3278,155.4117 C111.0058,164.7537 118.4158,161.5327 121.6368,162.0157 C124.8588,162.4987 125.0198,169.2637 125.0198,169.2637 C129.3688,168.9417 125.0198,161.3717 129.0468,162.6597 C133.0728,163.9487 136.2948,164.5927 138.3888,160.0827 C140.4828,155.5727 133.1298,154.6747 138.3888,150.2577 C142.0098,147.2157 140.1328,143.3787 140.1328,143.3787 L140.1328,143.3777 C142.0658,142.6967 144.7768,141.0197 143.7038,137.0497 C142.0928,131.0897 144.6708,129.1567 154.6568,127.3847 C164.6438,125.6137 161.0998,118.8477 161.0998,118.8477 C161.0998,118.8477 165.8588,119.7367 165.4548,115.0387 C165.4548,115.0387 165.7678,118.4147 167.6638,118.8477 C167.6638,118.8477 165.9728,121.3447 168.6298,122.1907 C171.2878,123.0357 169.1128,128.6357 172.6168,128.3727 C173.8188,128.2817 174.9098,128.4217 175.8498,128.7287 C180.0608,145.0107 167.1328,152.2467 167.1328,152.2467 C167.1328,152.2467 162.2278,157.9487 167.4218,160.0027 C172.6168,162.0557 172.6168,162.5387 171.1668,165.0757 C171.1668,165.0757 176.2408,165.0757 175.9998,159.8817 C175.9998,159.8817 179.7438,159.1567 179.1398,162.1767 C179.1398,162.1767 182.2808,161.9347 181.7978,158.0697 C181.5678,156.2277 183.2308,155.0497 185.0338,154.3157 L185.4398,155.3077 C187.3728,157.5787 200.2588,159.9637 198.0038,149.9767 C195.7488,139.9897 196.2318,144.1777 204.9298,141.3517 C213.6278,138.5257 207.9898,131.3307 207.9898,131.3307 C207.9898,131.3307 206.9748,130.3087 205.7968,128.8437" id="Hair" fill="#100a01"/><path d="M165.4097,114.5412 C165.6767,114.5132 165.9257,114.7182 165.9527,114.9922 C166.0317,115.8312 166.5137,118.0732 167.7747,118.3612 C167.9357,118.3972 168.0667,118.5112 168.1277,118.6642 C168.1887,118.8172 168.1697,118.9902 168.0777,119.1272 C167.8977,119.3972 167.4767,120.2362 167.6957,120.8632 C167.8277,121.2402 168.1937,121.5272 168.7817,121.7142 C170.2977,122.1962 170.5357,123.8202 170.7457,125.2532 C171.0237,127.1502 171.2907,127.9662 172.5787,127.8742 C173.5017,127.8052 174.3837,127.8622 175.2147,128.0412 L175.2147,128.0412 C175.5397,128.1062 178.0947,128.6612 179.2277,129.9682 C179.6977,129.4652 180.4127,128.5212 180.3977,127.4452 C180.3857,126.5492 179.8607,125.6962 178.8387,124.9092 C177.3977,123.8012 176.2967,123.4112 175.4127,123.0982 C173.7237,122.5002 172.8107,122.0462 172.1237,119.0032 C172.0627,118.7342 172.2317,118.4662 172.5007,118.4052 C172.7687,118.3442 173.0377,118.5132 173.0987,118.7822 C173.6967,121.4292 174.3387,121.6572 175.7467,122.1562 C176.6477,122.4742 177.8807,122.9112 179.4477,124.1162 C180.7277,125.1012 181.3837,126.2192 181.3977,127.4382 C181.4227,129.5182 179.5377,131.0652 179.4567,131.1302 C179.3667,131.2022 179.2567,131.2412 179.1427,131.2412 C179.1047,131.2412 179.0657,131.2372 179.0277,131.2272 C178.8767,131.1922 178.7517,131.0882 178.6877,130.9482 C178.3977,130.3072 177.4367,129.8062 176.5307,129.4682 C178.3697,137.6052 175.9227,143.4102 173.4797,146.8812 C172.8187,147.8202 172.1317,148.6322 171.4647,149.3352 C171.3687,149.4372 171.2667,149.5312 171.1697,149.6322 C170.9647,149.8392 170.7597,150.0512 170.5627,150.2362 C169.5757,151.1752 168.5057,152.0122 167.3687,152.7502 C166.8557,153.4042 165.1547,155.7522 165.6117,157.5992 C165.8237,158.4572 166.4767,159.0912 167.6057,159.5372 C170.6297,160.7332 172.0387,161.4412 172.4027,162.4782 C172.6187,163.0922 172.4457,163.7082 172.0697,164.4632 C172.7697,164.3172 173.7387,163.9842 174.4617,163.2232 C175.2157,162.4302 175.5657,161.3132 175.4997,159.9042 C175.4887,159.6562 175.6607,159.4372 175.9037,159.3902 C176.1267,159.3472 178.0967,159.0022 179.1297,160.0412 C179.5067,160.4212 179.6997,160.9172 179.7067,161.5232 C180.0367,161.3972 180.4427,161.1722 180.7627,160.7762 C181.2617,160.1572 181.4437,159.2672 181.3017,158.1312 C181.2677,157.8572 181.4617,157.6072 181.7357,157.5732 C182.0137,157.5382 182.2587,157.7332 182.2937,158.0072 C182.4717,159.4312 182.2147,160.5782 181.5287,161.4182 C180.6017,162.5532 179.2357,162.6712 179.1787,162.6752 C179.0197,162.6872 178.8697,162.6252 178.7657,162.5082 C178.6617,162.3912 178.6187,162.2322 178.6497,162.0782 C178.7717,161.4712 178.6937,161.0232 178.4207,160.7472 C177.9867,160.3082 177.0987,160.2742 176.5067,160.3192 C176.4907,161.8032 176.0457,163.0132 175.1797,163.9202 C173.6167,165.5572 171.2657,165.5762 171.1667,165.5762 C170.9887,165.5762 170.8237,165.4812 170.7347,165.3272 C170.6447,165.1732 170.6447,164.9832 170.7327,164.8282 C171.3357,163.7742 171.5977,163.2022 171.4597,162.8092 C171.2307,162.1562 169.7377,161.4552 167.2387,160.4672 C165.8057,159.9012 164.9317,159.0162 164.6407,157.8372 C164.3077,156.4882 164.8277,155.0202 165.4357,153.8832 C162.3197,155.4822 158.8087,156.3512 155.1577,156.3512 C149.2277,156.3512 143.6927,154.0502 139.5007,149.8682 C139.2667,150.1292 139.0107,150.3872 138.7107,150.6402 C136.1357,152.8022 136.8507,153.7972 137.9327,155.3032 C138.8057,156.5182 139.8927,158.0302 138.8417,160.2932 C136.5897,165.1452 133.0057,164.4522 128.8937,163.1362 C128.4327,162.9902 128.0937,162.9742 127.9357,163.0912 C127.6067,163.3372 127.6307,164.3442 127.6507,165.2322 C127.6937,167.0602 127.7517,169.5632 125.0567,169.7622 C125.0437,169.7632 125.0317,169.7642 125.0197,169.7642 C124.8957,169.7642 124.7757,169.7182 124.6837,169.6352 C124.5827,169.5422 124.5227,169.4132 124.5197,169.2762 C124.4767,167.5112 123.8607,162.8552 121.5627,162.5102 C120.9117,162.4122 120.0167,162.4832 119.0697,162.5602 C116.9237,162.7312 114.2547,162.9452 112.5297,161.2992 C111.3947,160.2132 110.8317,158.5042 110.8187,156.0872 C108.9867,156.5962 103.8907,157.7192 101.0027,155.4012 C99.4187,154.1292 98.7687,152.0552 99.0727,149.2372 C99.4667,145.5732 101.0267,143.0642 103.7067,141.7812 C103.9537,141.6602 104.2537,141.7662 104.3737,142.0162 C104.4927,142.2652 104.3867,142.5632 104.1377,142.6832 C101.7917,143.8062 100.4217,146.0482 100.0667,149.3442 C99.8017,151.8012 100.3277,153.5762 101.6277,154.6202 C104.6877,157.0782 111.1037,154.9592 111.1687,154.9382 C111.3237,154.8852 111.4937,154.9122 111.6267,155.0102 C111.7577,155.1092 111.8337,155.2652 111.8277,155.4282 C111.7427,157.8802 112.2127,159.6112 113.2207,160.5752 C114.6207,161.9132 116.9417,161.7282 118.9897,161.5632 C119.9957,161.4822 120.9447,161.4062 121.7117,161.5212 C124.7427,161.9762 125.3647,166.9522 125.4887,168.6772 C126.6307,168.3362 126.6947,167.1152 126.6517,165.2552 C126.6227,164.0162 126.5947,162.8452 127.3377,162.2902 C127.7787,161.9592 128.3877,161.9242 129.1987,162.1842 C133.2287,163.4742 136.0137,164.0102 137.9347,159.8722 C138.7397,158.1392 137.9537,157.0452 137.1207,155.8872 C136.0247,154.3622 134.7827,152.6332 138.0667,149.8742 C140.9137,147.4842 140.0787,144.6032 139.7717,143.8062 C138.9407,143.9892 138.0547,144.1232 137.2077,144.2492 C136.4467,144.3622 135.7297,144.4692 135.1937,144.5962 C133.5387,144.9902 133.8367,147.2862 133.8507,147.3842 C133.8807,147.6002 133.7667,147.8122 133.5687,147.9052 C133.5007,147.9372 133.4267,147.9532 133.3547,147.9532 C133.2187,147.9532 133.0847,147.8972 132.9877,147.7922 C132.8597,147.6532 129.8557,144.3452 131.3847,141.5622 C131.9447,140.5432 132.9927,139.9722 134.0067,139.4202 C135.7537,138.4682 137.2627,137.6452 136.6067,134.7422 C136.5457,134.4732 136.7147,134.2052 136.9847,134.1442 C137.2547,134.0862 137.5207,134.2532 137.5827,134.5222 C138.4047,138.1622 136.2317,139.3462 134.4847,140.2982 C133.5567,140.8032 132.6807,141.2812 132.2607,142.0442 C131.5357,143.3652 132.2407,144.9622 132.8997,146.0072 C133.0907,144.9912 133.6527,143.9352 134.9617,143.6242 C135.5397,143.4862 136.2777,143.3762 137.0607,143.2602 C138.4437,143.0542 140.1757,142.7892 141.2977,142.2902 C142.7877,141.4042 143.9467,139.8632 143.2207,137.1792 C143.1497,136.9132 143.3067,136.6382 143.5737,136.5662 C143.8387,136.4972 144.1137,136.6522 144.1867,136.9192 C144.8667,139.4332 144.1477,141.1052 143.0417,142.2072 C142.7547,142.5972 142.3247,142.9062 141.7977,143.1562 C141.4537,143.3582 141.1077,143.5282 140.7787,143.6652 C141.1017,144.6402 141.5677,146.8752 140.1277,149.0662 C144.1397,153.1142 149.4547,155.3512 155.1577,155.3512 C159.3007,155.3512 163.2647,154.1792 166.6347,152.0652 C166.6967,151.9882 166.7427,151.9342 166.7547,151.9202 C166.7927,151.8762 166.8377,151.8392 166.8887,151.8102 C167.0897,151.6982 169.0477,150.5602 171.1167,148.2862 C171.2697,148.1152 171.4227,147.9462 171.5707,147.7692 C171.6337,147.6942 171.6977,147.6212 171.7617,147.5442 C172.6687,146.4292 173.4687,145.2112 174.1427,143.8962 L174.1427,143.8962 L174.1517,143.9012 C175.9657,140.3102 177.0007,135.4292 175.4337,129.1242 C174.5767,128.8822 173.6417,128.7982 172.6537,128.8712 C170.2977,129.0492 169.9947,127.0252 169.7567,125.3982 C169.5407,123.9252 169.3347,122.9392 168.4787,122.6672 C167.5717,122.3782 166.9897,121.8812 166.7497,121.1882 C166.4857,120.4232 166.7267,119.6202 166.9577,119.1072 C166.3307,118.7592 165.8957,118.1362 165.5957,117.4842 C165.4167,117.8572 165.1767,118.1812 164.8747,118.4542 C163.4207,119.7722 161.1067,119.3572 161.0077,119.3402 C160.7367,119.2892 160.5587,119.0292 160.6087,118.7572 C160.6587,118.4862 160.9207,118.3092 161.1907,118.3562 C161.2097,118.3602 163.1237,118.6972 164.2067,117.7112 C164.8067,117.1642 165.0597,116.2802 164.9567,115.0822 C164.9327,114.8072 165.1347,114.5662 165.4097,114.5412 Z M201.39096,106.469865 L201.4823,106.4792 C201.7533,106.5322 201.9303,106.7952 201.8773,107.0662 C201.5693,108.6352 201.2033,110.0102 200.8813,111.2242 C199.5003,116.4222 198.9833,118.3672 206.3763,120.8312 C208.9033,121.6742 210.2063,122.7492 210.3583,124.1202 C210.5253,125.6172 209.2423,127.2472 206.5443,128.9682 C207.5353,130.1602 208.3363,130.9692 208.3453,130.9792 C208.4923,131.1612 211.0373,134.4612 210.0673,137.6422 C209.4913,139.5322 207.8143,140.9402 205.0843,141.8272 C202.4923,142.6692 200.5873,142.9042 199.3273,143.0582 C198.3623,143.1772 197.6663,143.2622 197.4763,143.5322 C197.1523,143.9942 197.5193,145.6022 198.1853,148.5202 L198.1853,148.5202 L198.4913,149.8662 C198.5513,150.1362 198.3823,150.4042 198.1133,150.4652 C198.0763,150.4732 198.0393,150.4772 198.0023,150.4772 C197.7743,150.4772 197.5683,150.3192 197.5153,150.0872 L197.5153,150.0872 L197.2103,148.7432 C196.3863,145.1342 196.0783,143.7832 196.6573,142.9582 C197.1023,142.3242 197.8943,142.2272 199.2053,142.0662 C200.5013,141.9062 202.2753,141.6892 204.7753,140.8762 C207.1763,140.0962 208.6353,138.9092 209.1113,137.3502 C209.9313,134.6622 207.6203,131.6692 207.5963,131.6392 C207.5913,131.6392 206.5873,130.6242 205.4073,129.1572 C205.3163,129.0452 205.2793,128.8992 205.3043,128.7572 C205.3293,128.6142 205.4143,128.4902 205.5383,128.4162 C208.1313,126.8472 209.4903,125.3622 209.3643,124.2312 C209.2623,123.3142 208.1193,122.4672 206.0603,121.7802 C197.7763,119.0192 198.5363,116.1592 199.9153,110.9682 C200.2333,109.7692 200.5943,108.4102 200.8953,106.8742 C200.9483,106.6032 201.2053,106.4262 201.4823,106.4792 Z M107.7762,108.5442 C107.9732,108.3522 108.2912,108.3562 108.4832,108.5552 C110.8212,110.9622 112.0962,113.3342 112.2732,115.6062 C112.2862,115.7792 112.2102,115.9462 112.0702,116.0492 C111.9302,116.1512 111.7482,116.1742 111.5882,116.1092 L111.5882,116.1092 L111.1972,115.9522 C108.1342,115.5312 105.2142,116.4132 103.7482,118.2072 C102.7752,119.4002 102.5512,120.8442 103.1012,122.3842 C103.4102,123.2512 103.7172,123.9362 103.9882,124.5402 C105.2022,127.2472 105.3882,128.2202 101.7232,132.5402 C101.6242,132.6572 101.4832,132.7172 101.3412,132.7172 C101.2272,132.7172 101.1122,132.6782 101.0182,132.5982 C100.8072,132.4202 100.7812,132.1042 100.9602,131.8942 C104.3812,127.8622 104.1312,127.3022 103.0762,124.9492 C102.7982,124.3282 102.4822,123.6242 102.1592,122.7202 C101.4942,120.8602 101.7842,119.0322 102.9742,117.5752 C104.6542,115.5172 107.7822,114.5182 111.1722,114.9402 C110.8092,113.1362 109.6442,111.1862 107.7652,109.2512 C107.5732,109.0532 107.5782,108.7372 107.7762,108.5442 Z M156.2269,82.4079 C156.9799,80.6799 160.0619,75.3749 168.8059,77.4909 C173.7629,78.6909 174.0079,81.9569 174.2249,84.8379 C174.4729,88.1499 174.6669,90.7549 181.3949,90.5239 C181.6779,90.4959 181.9029,90.7299 181.913234,91.0059 C181.9229,91.2819 181.7069,91.5139 181.4309,91.5239 C173.7529,91.8169 173.4809,88.2999 173.2279,84.9129 C173.0179,82.1249 172.8199,79.4909 168.5699,78.4629 C159.438087,76.2573267 157.188973,82.5715217 156.996212,83.1754161 L156.9849,83.2119 C156.9439,83.3499 156.8439,83.4639 156.7129,83.5239 C156.5809,83.5829 156.4289,83.5849 156.2989,83.5249 C156.2439,83.5009 150.7909,81.0579 147.7789,82.3359 C146.9659,82.6819 146.4249,83.2599 146.1259,84.1039 C145.5379,85.7619 144.5079,87.0089 143.0629,87.8159 C143.0249,87.9189 142.9529,88.0079 142.8549,88.0679 C142.6859,88.1699 142.4739,88.1649 142.3119,88.0549 C138.2139,85.2599 134.6949,84.4399 132.1369,85.6889 C129.4219,87.0139 128.2719,90.3629 128.1129,92.8279 C128.0959,93.0929 127.8759,93.2959 127.6149,93.2959 C127.6039,93.2959 127.5929,93.2949 127.5819,93.2949 C127.3069,93.2769 127.0979,93.0389 127.1149,92.7639 C127.2909,90.0309 128.5979,86.3029 131.6989,84.7909 C134.5569,83.3959 138.1919,84.1319 142.5059,86.9809 C143.7689,86.2959 144.6699,85.2169 145.1839,83.7699 C145.5769,82.6619 146.3179,81.8699 147.3889,81.4159 C150.2679,80.1929 154.7459,81.8049 156.2269,82.4079 Z" id="Combined-Shape" fill="#000"/></g></g><g id="Expression" transform="translate(204.000000, 312.000000) scale(1 1)"><g id="Expression/Angry" stroke="none" stroke-width="1" fill="none" fill-rule="evenodd"><path d="M56.9631,43.7085 C56.8851,44.2885 56.8511,45.0085 56.8761,45.8205 C56.8791,45.9005 56.9391,45.9615 57.0181,45.9655 C58.0341,46.0115 60.2201,45.9925 62.5561,45.2845 C62.0231,43.4445 56.9701,43.7085 56.9631,43.7085" id="Tougue" fill="#EC7068"/><path d="M65.1867,44.1718 C62.0147,45.9858 58.4157,46.0288 57.0177,45.9648 C56.9387,45.9618 56.8787,45.9008 56.8757,45.8208 C56.8237,44.1058 57.0257,42.7808 57.3807,42.3848 C57.4557,42.3398 57.6177,42.3098 57.8877,42.3098 C58.7997,42.3098 60.9487,42.6498 65.1447,43.8918 C65.2297,43.9168 65.2497,43.9878 65.2547,44.0278 C65.2597,44.0728 65.2517,44.1338 65.1867,44.1718 M65.4277,42.9328 C57.6327,40.6268 56.9537,41.3738 56.6637,41.6928 C55.9317,42.4978 55.8327,44.3988 55.8767,45.8518 C55.8967,46.4578 56.3667,46.9358 56.9707,46.9638 C57.1817,46.9738 57.4397,46.9818 57.7367,46.9818 C59.5337,46.9818 62.7647,46.7088 65.6827,45.0398 C66.0847,44.8098 66.3017,44.3778 66.2487,43.9128 C66.1947,43.4488 65.8727,43.0638 65.4277,42.9328 M61.7897,31.1918 C62.9427,32.7318 64.8447,35.7688 64.1497,37.2338 C63.8607,37.8418 63.0667,38.1508 61.7897,38.1508 C60.5117,38.1508 59.7177,37.8418 59.4287,37.2338 C58.7347,35.7688 60.6367,32.7318 61.7897,31.1918 M61.7897,39.1508 C63.4867,39.1508 64.5847,38.6498 65.0537,37.6618 C66.2437,35.1528 62.5967,30.5758 62.1767,30.0618 C61.9877,29.8298 61.5917,29.8298 61.4027,30.0618 C60.9827,30.5758 57.3357,35.1528 58.5257,37.6618 C58.9947,38.6498 60.0917,39.1508 61.7897,39.1508 M70.1167,24.1468 C69.9207,23.9508 69.6047,23.9508 69.4097,24.1468 C69.3947,24.1608 67.9377,25.5888 65.3937,25.5888 C65.1177,25.5888 64.8937,25.8128 64.8937,26.0888 C64.8937,26.3648 65.1177,26.5888 65.3937,26.5888 C68.3477,26.5888 70.0457,24.9238 70.1167,24.8538 C70.3117,24.6578 70.3117,24.3418 70.1167,24.1468 M57.8027,26.0888 C57.8027,25.8128 57.5797,25.5888 57.3027,25.5888 C54.7807,25.5888 53.2997,24.1598 53.2857,24.1448 C53.0897,23.9508 52.7727,23.9538 52.5797,24.1488 C52.3847,24.3438 52.3847,24.6588 52.5807,24.8538 C52.6507,24.9238 54.3487,26.5888 57.3027,26.5888 C57.5797,26.5888 57.8027,26.3648 57.8027,26.0888 M54.7067,28.6308 C54.0477,28.6308 53.5137,29.4128 53.5137,30.3788 C53.5137,31.3438 54.0477,32.1258 54.7067,32.1258 C55.3647,32.1258 55.8977,31.3438 55.8977,30.3788 C55.8977,29.4128 55.3647,28.6308 54.7067,28.6308 M68.7697,28.6308 C68.1117,28.6308 67.5787,29.4128 67.5787,30.3788 C67.5787,31.3438 68.1117,32.1258 68.7697,32.1258 C69.4277,32.1258 69.9607,31.3438 69.9607,30.3788 C69.9607,29.4128 69.4277,28.6308 68.7697,28.6308" id="Fill-4" fill="#000"/><path d="M52.4996066,33 C54.4327301,33 56,33.8954741 56,35 C56,36.1045259 54.4327301,37 52.4996066,37 C50.5664831,37 49,36.1045259 49,35 C49,33.8954741 50.5664831,33 52.4996066,33 Z M70.5,33 C72.4329063,33 74,33.8954741 74,35 C74,36.1045259 72.4329063,37 70.5,37 C68.5670937,37 67,36.1045259 67,35 C67,33.8954741 68.5670937,33 70.5,33 Z" id="Cheeks" fill="#E2A2B5"/></g></g><g id="Facial Hair" transform="translate(204.167262, 311.700000) scale(1 1)"><g id="Facial Hair/Small Mustache" stroke="none" stroke-width="1" fill="none" fill-rule="evenodd"><path d="M66.3498,41.21871 C65.9508,39.69071 65.0338,38.80471 64.0918,39.03671 L60.6898,39.87671 L57.2878,39.03671 C56.3458,38.80471 55.4288,39.69071 55.0298,41.21871 C54.9238,41.62171 55.1148,42.07071 55.3628,42.00371 L57.9168,41.31571 C59.7328,40.82671 61.6458,40.82571 63.4618,41.31571 L66.0168,42.00371 C66.2648,42.07071 66.4548,41.62171 66.3498,41.21871" id="Fill-1" fill="#100a01"/></g></g><g id="Accesories" transform="translate(107.500000, 210.000000) scale(1 1)" fill="#000"><g id="Accesories/Cat Glases" stroke="none" stroke-width="1" fill="none" fill-rule="evenodd"><path d="M170.5664,130.6465 C170.2974,131.4325 169.9954,132.3475 169.8184,132.9115 C169.4214,134.1885 168.6624,135.2655 167.5854,136.0395 C166.5194,136.8085 165.1844,137.2005 163.8574,137.1605 C163.1904,137.1515 162.5374,136.9825 161.9114,136.7595 L161.4494,136.5655 C161.3124,136.5065 161.2084,136.4385 161.1034,136.3495 C160.8964,136.1775 160.7404,135.9465 160.6534,135.6915 C160.5474,135.2335 160.2594,133.7265 160.1384,132.7625 C160.0914,132.3895 160.3334,132.0485 160.7004,131.9665 C162.4964,131.5665 167.7334,130.4085 169.9194,129.9255 C170.3434,129.8315 170.7074,130.2355 170.5664,130.6465 M171.4384,128.5175 C168.0084,129.2285 159.3384,131.0585 158.9934,131.3845 C158.7784,131.5875 158.8384,131.9685 158.8964,132.2455 L159.0074,132.7745 L159.2304,133.8335 C159.3914,134.5635 159.4984,135.1915 159.7034,136.0035 C159.8434,136.4335 160.1014,136.8245 160.4444,137.1195 C160.6124,137.2665 160.8144,137.3965 161.0064,137.4835 L161.5394,137.7145 C162.2624,137.9895 163.0254,138.1785 163.8044,138.2185 C165.3624,138.3285 166.9364,137.9005 168.2744,137.0715 C169.6014,136.2395 170.6804,134.9235 171.2684,133.4855 C171.6254,132.7045 172.0924,130.8245 172.4084,129.5275 C172.5534,128.9345 172.0364,128.3935 171.4384,128.5175 M155.2794,135.6915 C155.1924,135.9465 155.0364,136.1775 154.8304,136.3495 C154.7244,136.4385 154.6214,136.5065 154.4834,136.5655 L154.0214,136.7595 C153.3964,136.9825 152.7424,137.1515 152.0764,137.1605 C150.7484,137.2005 149.4144,136.8085 148.3484,136.0395 C147.2714,135.2655 146.5124,134.1885 146.1144,132.9115 C145.9374,132.3475 145.6364,131.4325 145.3664,130.6465 C145.2264,130.2355 145.5894,129.8315 146.0134,129.9255 C148.1994,130.4085 153.4364,131.5665 155.2334,131.9665 C155.5994,132.0485 155.8414,132.3895 155.7954,132.7625 C155.6734,133.7265 155.3864,135.2335 155.2794,135.6915 M144.4954,128.5175 C143.8974,128.3935 143.3794,128.9345 143.5244,129.5275 C143.8404,130.8245 144.3074,132.7045 144.6654,133.4855 C145.2524,134.9235 146.3324,136.2395 147.6584,137.0715 C148.9964,137.9005 150.5704,138.3285 152.1294,138.2185 C152.9074,138.1785 153.6704,137.9895 154.3944,137.7145 L154.9274,137.4835 C155.1184,137.3965 155.3204,137.2665 155.4884,137.1195 C155.8324,136.8245 156.0894,136.4335 156.2304,136.0035 C156.4344,135.1915 156.5424,134.5635 156.7034,133.8335 L156.9254,132.7745 L157.0364,132.2455 C157.0944,131.9685 157.1544,131.5875 156.9404,131.3845 C156.5944,131.0585 147.9244,129.2285 144.4954,128.5175" id="Fill-1" fill="#EC7068"/><path d="M159.1684,133.5396 L156.7644,133.5396 L156.7034,133.8336 C156.6494,134.0766 156.6014,134.3086 156.5544,134.5396 L159.3784,134.5396 C159.3314,134.3086 159.2834,134.0766 159.2304,133.8336 L159.1684,133.5396 Z M172.5604,128.4046 C172.2424,128.0756 171.7864,127.9356 171.3364,128.0276 C171.0654,128.0836 170.8924,128.3486 170.9484,128.6186 C171.0044,128.8896 171.2664,129.0606 171.5394,129.0066 C171.7004,128.9726 171.8034,129.0596 171.8404,129.0986 C171.8784,129.1386 171.9624,129.2476 171.9224,129.4096 C171.6784,130.4116 171.1704,132.4966 170.8054,133.2966 C170.2474,134.6616 169.2284,135.8826 168.0114,136.6466 C166.7334,137.4376 165.2484,137.8196 163.8394,137.7196 C163.5494,137.6986 163.3254,137.9076 163.3054,138.1836 C163.2864,138.4586 163.4934,138.6976 163.7694,138.7166 C163.9394,138.7286 164.1104,138.7346 164.2824,138.7346 C165.7434,138.7346 167.2364,138.3036 168.5404,137.4956 C169.9334,136.6216 171.0964,135.2286 171.7224,133.6936 C172.0714,132.9316 172.4924,131.2976 172.8944,129.6456 C173.0034,129.1986 172.8784,128.7346 172.5604,128.4046 L172.5604,128.4046 Z M152.0934,137.7196 C150.6774,137.8166 149.1994,137.4376 147.9234,136.6486 C146.7044,135.8826 145.6854,134.6616 145.1204,133.2776 C144.7644,132.5016 144.2544,130.4126 144.0104,129.4096 C143.9704,129.2476 144.0554,129.1376 144.0924,129.0986 C144.1304,129.0606 144.2334,128.9726 144.3934,129.0066 C144.6614,129.0606 144.9284,128.8896 144.9844,128.6186 C145.0404,128.3486 144.8674,128.0836 144.5964,128.0276 C144.1444,127.9356 143.6904,128.0756 143.3734,128.4036 C143.0544,128.7336 142.9294,129.1986 143.0384,129.6456 C143.4424,131.3006 143.8634,132.9356 144.2024,133.6746 C144.8364,135.2286 145.9994,136.6216 147.3954,137.4976 C148.6964,138.3036 150.1894,138.7356 151.6494,138.7356 C151.8214,138.7356 151.9934,138.7286 152.1644,138.7166 C152.4394,138.6976 152.6474,138.4586 152.6274,138.1836 C152.6074,137.9076 152.3664,137.6966 152.0934,137.7196 L152.0934,137.7196 Z" id="Fill-3" fill="#000"/></g></g></g></g><path d="M586.099,574 L154.5,574 C154.224,574 154,573.776 154,573.5 C154,573.224 154.224,573 154.5,573 L586.099,573 C586.375,573 586.599,573.224 586.599,573.5 C586.599,573.776 586.375,574 586.099,574" id="Fill-32" fill="#000"/><path d="M500.937,597 L401.5,597 C401.224,597 401,596.776 401,596.5 C401,596.224 401.224,596 401.5,596 L500.937,596 C501.213,596 501.437,596.224 501.437,596.5 C501.437,596.776 501.213,597 500.937,597" id="Fill-33" fill="#000"/><g id="Side Decoration" transform="translate(193.207073, 315.960000) scale(-1, 1) translate(-193.207073, -315.960000) translate(-55.292927, 57.960000) scale(1 1)"><g id="Side Decoration/Flat Leaves Copy" stroke="none" stroke-width="1" fill="none" fill-rule="evenodd"><g id="Group-69" transform="translate(203.679934, 390.000000)" fill="#83BB9E"><path d="M114.1177,0.4224 C114.1177,0.4224 -34.6103,16.4394 8.0537,117.3394 C8.0537,117.3394 70.0417,148.3444 114.1177,0.4224" id="Fill-67"/></g><path d="M207.425034,515.998 C207.359034,515.998 207.291034,515.985 207.226034,515.956 C206.973034,515.846 206.857034,515.552 206.967034,515.298 C207.327034,514.472 243.599034,432.346 301.735034,403.219 C301.983034,403.097 302.282034,403.196 302.406034,403.442 C302.530034,403.689 302.430034,403.989 302.183034,404.113 C244.374034,433.076 208.242034,514.874 207.884034,515.698 C207.802034,515.886 207.618034,515.998 207.425034,515.998" id="Fill-70" fill="#000"/><path d="M201.316434,512.1931 C201.316434,512.1931 228.743434,491.9991 173.865434,439.6411 C173.865434,439.6411 147.625434,508.3061 201.316434,512.1931 Z" id="Fill-72" fill="#83BB9E"/><path d="M203.924534,516.4023 C203.776534,516.4023 203.630534,516.3373 203.531534,516.2123 C203.460534,516.1223 196.360534,507.0913 189.412534,494.4343 C182.988534,482.7333 175.382534,465.4433 175.620534,449.5253 C175.624534,449.2493 175.862534,449.0103 176.127534,449.0323 C176.403534,449.0373 176.624534,449.2643 176.620534,449.5403 C176.170534,479.6123 204.034534,515.2353 204.316534,515.5923 C204.487534,515.8093 204.450534,516.1233 204.234534,516.2943 C204.142534,516.3673 204.032534,516.4023 203.924534,516.4023" id="Fill-74" fill="#000"/><path d="M201.317134,512.6934 C201.305134,512.6934 201.293134,512.6934 201.280134,512.6924 C188.070134,511.7354 178.524134,506.7744 172.905134,497.9444 C159.405134,476.7324 173.257134,439.8334 173.398134,439.4624 C173.497134,439.2044 173.788134,439.0774 174.044134,439.1734 C174.302134,439.2724 174.431134,439.5614 174.333134,439.8194 C174.193134,440.1854 160.519134,476.6224 173.750134,497.4094 C179.189134,505.9564 188.476134,510.7624 201.353134,511.6944 C201.628134,511.7144 201.835134,511.9544 201.815134,512.2294 C201.796134,512.4924 201.577134,512.6934 201.317134,512.6934" id="Fill-76" fill="#000"/></g></g></g></svg>