<svg viewBox="89.53488372093028 116 244.1860465116279 202.99999999999991" fill="none" xmlns="http://www.w3.org/2000/svg" xmlns:xlink="http://www.w3.org/1999/xlink" overflow="visible" width="244.1860465116279px" height="202.99999999999991px"><g id="Master/Character/Torso"><g id="Head 2" transform="translate(189.79 120) scale(1 1)"><g id="Head 2/Funny"><path id="Path 2" fill-rule="evenodd" clip-rule="evenodd" d="M16 65.8323C16 65.8323 21.5224 62.2244 20.5403 47.3243C20.5403 47.3243 29.274 51.4116 38.8022 44.5006L41 65.6603C41 65.6603 34.3939 73.164 27.4671 72.4363C20.5403 71.7086 16 65.8323 16 65.8323Z" fill="#8b4500"/><path id="Path 2 Copy" fill-rule="evenodd" clip-rule="evenodd" d="M20.7523 46.8715C26.3989 49.514 32.2957 48.6022 38.5087 44.0959C38.8203 43.8698 39.2598 44.066 39.2996 44.449L41.4974 65.6086C41.5118 65.7474 41.4675 65.8859 41.3753 65.9907C36.8731 71.1047 32.2136 73.4377 27.4149 72.9335C22.6587 72.4339 18.7133 70.1617 15.6044 66.1381C15.426 65.9072 15.4824 65.5733 15.7266 65.4138C19.2108 63.1374 20.6854 57.1264 20.0414 47.3572C20.0164 46.9776 20.4077 46.7102 20.7523 46.8715ZM40.479 65.492L38.392 45.4L37.9797 45.6795C32.2505 49.4704 26.6918 50.3258 21.3497 48.2176L21.088 48.111L21.1011 48.3404C21.5662 57.3108 20.1823 63.143 16.8667 65.8193L16.719 65.934L16.9567 66.2216C19.711 69.4853 23.0863 71.3695 27.1017 71.89L27.5194 71.939C31.9564 72.4051 36.3189 70.2208 40.6248 65.3299L40.479 65.492Z" fill="black"/><g id="Head"><path id="Combined Shape" fill-rule="evenodd" clip-rule="evenodd" d="M27.485 48.7008C17.392 48.7008 9.20996 40.0248 9.20996 29.3208C9.20996 18.6168 17.392 9.93982 27.485 9.93982C37.578 9.93982 45.76 18.6168 45.76 29.3208C45.76 40.0248 37.578 48.7008 27.485 48.7008Z" fill="#8b4500"/><path id="Fill 18" fill-rule="evenodd" clip-rule="evenodd" d="M27.485 10.4399C17.684 10.4399 9.70996 18.9099 9.70996 29.3209C9.70996 39.7319 17.684 48.2009 27.485 48.2009C37.286 48.2009 45.26 39.7319 45.26 29.3209C45.26 18.9099 37.286 10.4399 27.485 10.4399M27.485 49.2009C17.132 49.2009 8.70996 40.2829 8.70996 29.3209C8.70996 18.3579 17.132 9.43994 27.485 9.43994C37.838 9.43994 46.26 18.3579 46.26 29.3209C46.26 40.2829 37.838 49.2009 27.485 49.2009" fill="black"/><path id="Fill 21" fill-rule="evenodd" clip-rule="evenodd" d="M22.3651 35.2921C22.3451 35.2921 22.3251 35.2911 22.3041 35.2891L19.2491 34.9181C19.1061 34.9001 18.9771 34.8221 18.8961 34.7021C18.8151 34.5831 18.7891 34.4341 18.8261 34.2941L19.7521 30.7751C19.8231 30.5091 20.0961 30.3511 20.3631 30.4191C20.6291 30.4901 20.7891 30.7631 20.7191 31.0301L19.9391 33.9941L22.4251 34.2951C22.6991 34.3291 22.8941 34.5781 22.8611 34.8521C22.8301 35.1061 22.6151 35.2921 22.3651 35.2921" fill="black"/><path id="Fill 22" fill-rule="evenodd" clip-rule="evenodd" d="M27.4851 28.8979C27.4851 29.7989 27.0261 30.5299 26.4591 30.5299C25.8911 30.5299 25.4321 29.7989 25.4321 28.8979C25.4321 27.9959 25.8911 27.2649 26.4591 27.2649C27.0261 27.2649 27.4851 27.9959 27.4851 28.8979" fill="black"/><path id="Fill 23" fill-rule="evenodd" clip-rule="evenodd" d="M17.5203 28.8979C17.5203 29.7989 17.0603 30.5299 16.4933 30.5299C15.9263 30.5299 15.4663 29.7989 15.4663 28.8979C15.4663 27.9959 15.9263 27.2649 16.4933 27.2649C17.0603 27.2649 17.5203 27.9959 17.5203 28.8979" fill="black"/><path id="Fill 24" fill-rule="evenodd" clip-rule="evenodd" d="M29.0188 25.0131C28.9028 25.0131 28.7878 24.9731 28.6928 24.8921C27.1708 23.5861 25.4648 23.6191 25.4438 23.6141C25.1638 23.6141 24.9388 23.4011 24.9318 23.1251C24.9258 22.8491 25.1438 22.6201 25.4198 22.6141C25.5038 22.6151 27.5368 22.5821 29.3448 24.1341C29.5538 24.3131 29.5778 24.6291 29.3978 24.8391C29.2988 24.9541 29.1598 25.0131 29.0188 25.0131" fill="black"/><path id="Fill 25" fill-rule="evenodd" clip-rule="evenodd" d="M13.9334 25.0131C13.7924 25.0131 13.6534 24.9541 13.5544 24.8391C13.3744 24.6291 13.3984 24.3141 13.6074 24.1341C15.4144 22.5821 17.4474 22.6111 17.5324 22.6141C17.8074 22.6201 18.0244 22.8481 18.0194 23.1241C18.0144 23.3991 17.7974 23.5851 17.5104 23.6141C17.4854 23.6111 15.7614 23.6031 14.2594 24.8921C14.1644 24.9731 14.0494 25.0131 13.9334 25.0131" fill="black"/><path id="Fill 26" fill-rule="evenodd" clip-rule="evenodd" d="M22.0183 41.1421C20.4003 41.1421 19.1463 40.6431 19.1193 40.6321C18.8643 40.5271 18.7423 40.2361 18.8473 39.9801C18.9513 39.7251 19.2433 39.6021 19.4983 39.7061C19.6973 39.7881 24.3933 41.6351 26.7873 37.2821C26.9203 37.0401 27.2253 36.9521 27.4663 37.0841C27.7083 37.2171 27.7963 37.5211 27.6633 37.7631C26.1603 40.4981 23.8553 41.1421 22.0183 41.1421" fill="black"/><path id="Fill 27" fill-rule="evenodd" clip-rule="evenodd" d="M24.7944 40.0698C24.7944 40.0698 26.3494 43.5018 27.9764 41.8748C29.6044 40.2468 26.9824 38.7488 26.9824 38.7488" fill="#FF4200"/><path id="Fill 28" fill-rule="evenodd" clip-rule="evenodd" d="M27.0572 42.8121C26.9552 42.8121 26.8602 42.8021 26.7762 42.7871C25.3992 42.5361 24.4432 40.5071 24.3392 40.2761C24.2252 40.0251 24.3362 39.7291 24.5882 39.6151C24.8402 39.5011 25.1362 39.6121 25.2492 39.8631C25.5622 40.5501 26.3022 41.6851 26.9552 41.8031C27.0972 41.8301 27.3172 41.8271 27.6232 41.5211C27.9162 41.2281 28.0402 40.9441 28.0022 40.6531C27.9152 39.9971 27.0572 39.3691 26.7332 39.1821C26.4942 39.0441 26.4112 38.7391 26.5492 38.5001C26.6852 38.2611 26.9912 38.1761 27.2302 38.3141C27.3922 38.4071 28.8242 39.2591 28.9932 40.5191C29.0492 40.9391 28.9802 41.5781 28.3302 42.2281C27.8712 42.6871 27.4172 42.8121 27.0572 42.8121" fill="black"/></g></g></g><g id="Hair 2" transform="translate(107.79 57) scale(1 1)"><g id="Hair 2/Short Straight"><g id="Group 6"><path id="Hair" fill-rule="evenodd" clip-rule="evenodd" d="M130.854 66.1396C117.987 59.0186 106.084 67.0246 106.084 67.0246C89.4356 67.3316 90.0156 84.1726 90.0156 84.1726H117.287L117.564 86.6056L118.057 90.9186C119.051 90.7316 120.156 90.8526 121.479 92.4066C121.97 92.9826 122.318 93.7116 122.312 94.4676C122.298 96.4376 120.697 98.0306 118.724 98.0306C118.604 98.0306 118.492 98.0066 118.376 97.9946L118.749 106.275L118.818 109.48H133.613C133.613 109.48 149.927 76.6966 130.854 66.1396" fill="#0d0401"/><path id="Fill 3" fill-rule="evenodd" clip-rule="evenodd" d="M119.318 108.968H133.29C134.811 105.747 148.102 76.2719 130.605 66.5879C118.173 59.7089 106.486 67.3719 106.369 67.4499C106.287 67.5049 106.192 67.5349 106.093 67.5369C101.359 67.6239 97.6092 69.0919 94.9462 71.8999C91.0242 76.0339 90.5742 81.9309 90.5292 83.6599H117.286C117.547 83.6599 117.765 83.8559 117.795 84.1139L118.506 90.3449C119.433 90.2969 120.578 90.5599 121.869 92.0749C122.49 92.8049 122.83 93.6549 122.823 94.4729C122.808 96.6539 121.07 98.4399 118.912 98.5389L119.259 106.251L119.318 108.968ZM133.612 109.991H118.817C118.539 109.991 118.311 109.769 118.305 109.49L118.236 106.285L117.863 98.0179C117.857 97.8689 117.915 97.7249 118.023 97.6229C118.131 97.5199 118.278 97.4669 118.427 97.4859L118.561 97.5029C118.615 97.5099 118.668 97.5189 118.723 97.5189C120.407 97.5189 121.788 96.1499 121.799 94.4639C121.804 93.8949 121.552 93.2809 121.089 92.7389C119.884 91.3229 118.966 91.2689 118.151 91.4219C118.011 91.4489 117.866 91.4149 117.753 91.3309C117.638 91.2469 117.564 91.1179 117.548 90.9769L116.829 84.6839H90.0152C89.7392 84.6839 89.5132 84.4649 89.5032 84.1909C89.4922 83.8729 89.2922 76.3719 94.2032 71.1949C97.0342 68.2099 100.979 66.6359 105.929 66.5169C107.283 65.6699 118.835 58.9039 131.101 65.6929C150.379 76.3629 134.235 109.376 134.07 109.708C133.984 109.882 133.807 109.991 133.612 109.991V109.991Z" fill="black"/></g></g></g><g id="Torso Upper Body" transform="translate(1 41.7684) scale(1 1)"><g id="Torso Upper Body/Computer"><g id="Computer"><path id="Tshirt" fill-rule="evenodd" clip-rule="evenodd" d="M325.225 200.068L311.977 180.748C295.156 156.214 267.322 141.55 237.575 141.55H230.356L230.97 135.739C231.091 134.598 230.196 133.605 229.049 133.605H211.448C211.07 134.332 210.636 134.94 210.233 135.403C208.865 136.974 206.582 136.139 204.664 134.938C204.566 135.239 204.532 135.566 204.597 135.903L205.689 141.55H201.795C201.386 143.242 200.741 145.168 199.725 147.371C194.85 157.939 178.742 166.572 178.742 166.572C178.742 166.572 172.767 194.906 160.589 217.976L154.409 254.178H281.636L275.344 217.325L272.426 195.515L275.392 201.446C275.622 201.907 276.093 202.198 276.609 202.198H324.103C325.198 202.198 325.844 200.97 325.225 200.068" fill="#409B81"/><path id="Fill 3" fill-rule="evenodd" clip-rule="evenodd" d="M325.648 199.778L312.4 180.458C295.475 155.775 267.504 141.039 237.575 141.039H230.925L231.479 135.793C231.552 135.105 231.328 134.416 230.866 133.902C230.403 133.387 229.741 133.092 229.049 133.092H206.493C205.761 133.092 205.074 133.417 204.609 133.98C204.143 134.546 203.956 135.281 204.094 136L205.069 141.039H201.573C201.581 141.381 201.56 141.724 201.507 142.062H205.689C205.842 142.062 205.987 141.994 206.084 141.877C206.181 141.758 206.22 141.603 206.191 141.453L205.099 135.806C205.019 135.388 205.127 134.961 205.398 134.632C205.669 134.304 206.068 134.117 206.493 134.117H229.049C229.457 134.117 229.832 134.283 230.104 134.587C230.377 134.889 230.503 135.281 230.461 135.685L229.847 141.496C229.832 141.641 229.879 141.785 229.976 141.892C230.073 142 230.211 142.062 230.356 142.062H237.575C267.166 142.062 294.822 156.632 311.555 181.037L324.803 200.357C324.984 200.622 325.003 200.949 324.854 201.233C324.705 201.517 324.424 201.685 324.103 201.685H276.609C276.285 201.685 275.995 201.506 275.85 201.216L272.884 195.286C272.773 195.062 272.514 194.949 272.276 195.026C272.037 195.099 271.886 195.335 271.919 195.583L274.84 217.411L281.029 253.666H155.016L160.593 220.996C160.247 221.011 159.903 220.99 159.566 220.929L153.905 254.091C153.879 254.241 153.92 254.392 154.018 254.507C154.115 254.623 154.258 254.689 154.409 254.689H281.636C281.788 254.689 281.93 254.623 282.028 254.507C282.125 254.392 282.167 254.241 282.141 254.091L275.852 217.257L273.341 198.488L274.934 201.674C275.253 202.312 275.895 202.71 276.609 202.71H324.103C324.8 202.71 325.435 202.327 325.76 201.71C326.085 201.093 326.042 200.353 325.648 199.778" fill="black"/><path id="Fill 5" fill-rule="evenodd" clip-rule="evenodd" d="M208.942 141.325C208.659 141.325 208.43 141.096 208.43 140.813V136.176C208.43 135.892 208.659 135.664 208.942 135.664C209.225 135.664 209.454 135.892 209.454 136.176V140.813C209.454 141.096 209.225 141.325 208.942 141.325" fill="black"/><path id="Fill 7" fill-rule="evenodd" clip-rule="evenodd" d="M212.399 141.325C212.116 141.325 211.887 141.096 211.887 140.813V136.176C211.887 135.892 212.116 135.664 212.399 135.664C212.682 135.664 212.911 135.892 212.911 136.176V140.813C212.911 141.096 212.682 141.325 212.399 141.325" fill="black"/><path id="Fill 9" fill-rule="evenodd" clip-rule="evenodd" d="M215.858 141.325C215.575 141.325 215.346 141.096 215.346 140.813V136.176C215.346 135.892 215.575 135.664 215.858 135.664C216.141 135.664 216.37 135.892 216.37 136.176V140.813C216.37 141.096 216.141 141.325 215.858 141.325" fill="black"/><path id="Fill 11" fill-rule="evenodd" clip-rule="evenodd" d="M219.317 141.325C219.034 141.325 218.805 141.096 218.805 140.813V136.176C218.805 135.892 219.034 135.664 219.317 135.664C219.6 135.664 219.829 135.892 219.829 136.176V140.813C219.829 141.096 219.6 141.325 219.317 141.325" fill="black"/><path id="Fill 13" fill-rule="evenodd" clip-rule="evenodd" d="M222.774 141.325C222.491 141.325 222.262 141.096 222.262 140.813V136.176C222.262 135.892 222.491 135.664 222.774 135.664C223.057 135.664 223.286 135.892 223.286 136.176V140.813C223.286 141.096 223.057 141.325 222.774 141.325" fill="black"/><path id="Fill 15" fill-rule="evenodd" clip-rule="evenodd" d="M226.233 141.325C225.95 141.325 225.721 141.096 225.721 140.813V136.176C225.721 135.892 225.95 135.664 226.233 135.664C226.516 135.664 226.745 135.892 226.745 136.176V140.813C226.745 141.096 226.516 141.325 226.233 141.325" fill="black"/><path id="Skin" fill-rule="evenodd" clip-rule="evenodd" d="M319.631 202.198H277.799C277.799 202.198 293.189 227.336 277.842 236C262.496 244.663 193.146 221.753 193.146 221.753C193.146 221.753 174.334 215.564 172.849 223.485C172.685 224.36 172.69 225.144 172.829 225.847C172.829 225.847 167.218 224.568 164.526 221.226H158.81C172.186 197.664 178.742 166.572 178.742 166.572C178.742 166.572 194.85 157.939 199.724 147.371C204.599 136.803 201.293 132.269 201.293 132.269C201.293 132.269 207.539 138.497 210.233 135.403C212.926 132.308 217.071 122.832 195.559 113.508C174.046 104.181 159.14 130.291 154.53 139.664C149.92 149.038 124.993 202.198 124.993 202.198H112.184C112.184 202.198 96.0322 236.169 116.268 244.894C129.673 250.674 140.867 244.844 149.906 234.215C155.347 237.317 163.491 240.705 175.664 244.06C175.664 244.06 190.609 248.98 196.921 252.322C203.233 255.664 273.529 289.017 308.987 262.842C344.445 236.666 319.631 202.198 319.631 202.198" fill="#8b4500"/><path id="Fill 19" fill-rule="evenodd" clip-rule="evenodd" d="M129.826 191.901C129.826 191.901 123.322 203.124 120.723 215.005Z" fill="#E5AB78"/><path id="Fill 21" fill-rule="evenodd" clip-rule="evenodd" d="M120.723 215.517C120.687 215.517 120.65 215.513 120.613 215.505C120.337 215.445 120.162 215.172 120.223 214.896C122.809 203.074 129.317 191.757 129.382 191.644C129.524 191.399 129.838 191.315 130.081 191.458C130.327 191.6 130.41 191.913 130.268 192.159C130.203 192.269 123.774 203.453 121.223 215.115C121.171 215.354 120.959 215.517 120.723 215.517" fill="black"/><path id="Fill 23" fill-rule="evenodd" clip-rule="evenodd" d="M308.684 262.429C272.083 289.452 197.894 252.257 197.161 251.868C190.883 248.546 175.975 243.623 175.801 243.566C149.648 236.359 142.453 228.988 140.492 225.236C139.603 223.534 139.614 222.296 139.689 221.738H147.215C147.186 221.913 147.178 222.113 147.209 222.339C147.469 224.234 150.159 226.45 155.205 228.925C165.152 233.808 177.528 237.551 177.652 237.588C177.702 237.603 177.751 237.611 177.8 237.611C178.02 237.611 178.223 237.467 178.29 237.245C178.372 236.976 178.218 236.689 177.947 236.609C177.825 236.572 165.528 232.852 155.655 228.006C149.546 225.008 148.381 223.111 148.231 222.245C148.189 222.004 148.228 221.843 148.274 221.738H164.286C166.772 224.647 171.243 225.965 172.425 226.273C173.905 231.941 183.311 232.396 183.696 232.409L190.75 233.029C190.765 233.031 190.78 233.031 190.795 233.031C191.058 233.031 191.281 232.829 191.305 232.564C191.33 232.283 191.121 232.034 190.839 232.009L183.761 231.388C183.667 231.385 174.357 230.948 173.331 225.747C173.2 225.081 173.207 224.353 173.352 223.578C173.562 222.456 174.159 221.62 175.174 221.02C180.156 218.072 192.858 222.196 192.986 222.238C193.159 222.296 210.564 228.026 229.62 232.622C255.305 238.817 271.615 240.102 278.094 236.446C281.466 234.542 283.659 231.713 284.612 228.036C287.103 218.433 280.542 205.954 278.693 202.709H319.363C320.308 204.101 325.518 212.162 327.1 222.779C329.421 238.354 323.225 251.695 308.684 262.429M320.046 201.898C319.951 201.765 319.795 201.685 319.631 201.685H277.799C277.614 201.685 277.444 201.785 277.353 201.948C277.263 202.109 277.266 202.306 277.363 202.464C277.453 202.613 286.338 217.308 283.621 227.781C282.74 231.177 280.711 233.792 277.591 235.554C262.616 244.011 193.998 221.493 193.306 221.266C192.766 221.088 180.033 216.956 174.653 220.138C173.387 220.887 172.61 221.981 172.346 223.391C172.232 223.999 172.192 224.589 172.226 225.153C170.66 224.691 166.914 223.375 164.924 220.906C164.828 220.784 164.681 220.714 164.526 220.714H139.279C139.066 220.714 138.874 220.846 138.8 221.046C138.772 221.118 138.14 222.874 139.534 225.611C140.763 228.026 143.469 231.047 149.092 234.344C145.571 238.41 141.735 241.738 137.574 243.893C130.841 247.379 123.742 247.56 116.471 244.424C112.385 242.662 109.531 239.689 107.987 235.585C103.455 223.55 111.369 205.239 112.512 202.709H124.993C125.192 202.709 125.372 202.594 125.456 202.414C125.706 201.883 150.434 149.152 154.989 139.889C160.282 129.131 174.805 105.066 195.355 113.977C204.96 118.14 210.623 122.927 211.731 127.82C212.555 131.46 210.688 134.1 209.847 135.066C209.464 135.505 208.983 135.729 208.377 135.751C205.659 135.801 201.694 131.945 201.654 131.906L196.717 126.962C196.627 126.872 196.512 126.829 196.395 126.821C191.785 121.093 183.212 118.501 183.088 118.465C182.817 118.384 182.533 118.542 182.454 118.812C182.373 119.083 182.529 119.367 182.8 119.447C182.967 119.495 199.521 124.497 198.156 135.777C197.202 143.667 195.352 148.486 192.946 149.345C191.726 149.782 190.278 149.21 188.645 147.646C188.619 147.62 188.587 147.609 188.558 147.59C189.675 144.302 189.709 139.681 188.651 133.748C187.123 125.177 175.18 124.778 175.06 124.775C174.771 124.758 174.542 124.992 174.536 125.274C174.528 125.556 174.751 125.79 175.034 125.798C175.146 125.802 186.262 126.179 187.648 133.952C189.642 145.138 187.663 151.357 181.809 152.427C180.767 152.516 177.895 152.435 177.086 150.937C177.063 150.894 177.029 150.862 176.997 150.828C179.046 147.522 180.271 142.765 180.527 139.379C181.099 131.813 169.611 130.048 169.122 129.976C168.841 129.936 168.583 130.129 168.541 130.408C168.5 130.689 168.694 130.949 168.974 130.99C169.084 131.005 180.006 132.685 179.506 139.301C179.133 144.244 176.533 152.125 172.809 153.447C171.31 153.984 169.719 153.372 168.081 151.64C163.455 146.754 170.595 138.629 170.667 138.548C170.855 138.337 170.836 138.013 170.626 137.825C170.414 137.638 170.091 137.657 169.903 137.866C169.787 137.997 168.726 139.205 167.671 140.953C167.634 140.876 167.584 140.804 167.509 140.752C166.658 140.164 167.056 137.998 167.262 137.286C167.341 137.015 167.184 136.731 166.913 136.653C166.642 136.576 166.358 136.729 166.279 137.001C166.176 137.354 165.32 140.486 166.927 141.594C167.016 141.656 167.117 141.685 167.217 141.685C167.23 141.685 167.241 141.677 167.254 141.676C165.567 144.741 164.229 149.06 167.337 152.344C168.799 153.889 170.268 154.664 171.722 154.664C172.201 154.664 172.678 154.58 173.152 154.411C174.377 153.977 175.459 152.997 176.398 151.716C177.497 153.241 179.906 153.471 181.164 153.471C181.597 153.471 181.892 153.446 181.947 153.441C184.884 152.905 186.952 151.276 188.158 148.585C189.556 149.865 190.881 150.515 192.116 150.515C192.517 150.515 192.909 150.447 193.291 150.31C196.161 149.283 198.14 144.435 199.173 135.899C199.435 133.733 199.09 131.79 198.356 130.054L200.896 132.596C201.08 132.87 203.826 137.258 199.26 147.158C194.514 157.445 178.66 166.034 178.5 166.12C178.367 166.192 178.272 166.319 178.241 166.466C178.158 166.862 172.824 191.623 162.219 213.522C162.478 213.822 162.698 214.14 162.865 214.482C173.196 193.38 178.617 169.527 179.193 166.909C181.186 165.814 195.544 157.656 200.189 147.585C203.322 140.796 203.151 136.419 202.57 134.074C204.102 135.297 206.422 136.866 208.413 136.774C209.306 136.742 210.048 136.394 210.619 135.738C211.562 134.654 213.658 131.692 212.73 127.593C211.53 122.295 205.822 117.397 195.762 113.036C186.33 108.948 177.109 111.021 168.356 119.199C161.382 125.716 156.412 134.676 154.071 139.437C149.689 148.347 126.677 197.402 124.667 201.685H112.184C111.986 201.685 111.806 201.799 111.721 201.978C111.323 202.816 102.024 222.649 107.028 235.945C108.673 240.319 111.714 243.488 116.066 245.364C119.642 246.907 123.181 247.677 126.661 247.677C130.539 247.677 134.345 246.718 138.045 244.802C142.369 242.562 146.344 239.094 149.983 234.856C155.502 237.951 163.62 241.271 175.505 244.546C175.654 244.595 190.48 249.491 196.682 252.775C197.223 253.06 237.516 273.259 273.61 273.258C286.772 273.257 299.379 270.571 309.292 263.253C344.747 237.079 320.297 202.247 320.046 201.898" fill="black"/><path id="Laptop" fill-rule="evenodd" clip-rule="evenodd" d="M194.602 214.224L176.732 157.946H91.5127L111.605 221.226H208.942V214.224H194.602Z" fill="#EFF2F7"/><path id="Fill 28" fill-rule="evenodd" clip-rule="evenodd" d="M111.979 220.714H208.43V214.736H194.602C194.378 214.736 194.181 214.592 194.114 214.379L176.357 158.458H92.2117L111.979 220.714ZM208.941 221.737H111.604C111.381 221.737 111.184 221.594 111.117 221.381L91.0237 158.101C90.9747 157.944 91.0027 157.775 91.0997 157.644C91.1947 157.512 91.3487 157.434 91.5117 157.434H176.732C176.955 157.434 177.152 157.578 177.22 157.791L194.976 213.712H208.941C209.225 213.712 209.454 213.942 209.454 214.224V221.226C209.454 221.509 209.225 221.737 208.941 221.737V221.737Z" fill="black"/><path id="Fill 31" fill-rule="evenodd" clip-rule="evenodd" d="M196.572 221.738C196.353 221.738 196.15 221.597 196.082 221.377L188.732 197.428C188.649 197.159 188.801 196.873 189.072 196.79C189.343 196.702 189.628 196.857 189.711 197.129L197.061 221.077C197.144 221.346 196.992 221.633 196.722 221.716C196.672 221.731 196.621 221.738 196.572 221.738" fill="black"/></g></g></g></g></svg>